<svg preserveAspectRatio="none" width="100%" height="100%" overflow="visible" style="display: block;" viewBox="0 0 48.8372 4.19715" fill="none" xmlns="http://www.w3.org/2000/svg">
<g id="Group">
<path id="Vector" d="M1.21536 0.00101902H1.71264L2.93376 3.30342H2.496L2.15424 2.3511H0.77376L0.432 3.30342H0L1.21728 0.00101902H1.21536ZM2.03136 2.0055L1.58016 0.75174L1.46688 0.433019H1.45728C1.42464 0.538619 1.38432 0.6519 1.34784 0.75174L0.89664 2.0055H2.03136Z" fill="var(--fill-0, black)"/>
<path id="Vector_2" d="M3.40149 0.981148H3.78934V1.36323H3.79894C3.94102 1.13091 4.17333 0.912024 4.47861 0.912024C4.54197 0.912024 4.6015 0.921629 4.65142 0.935069V1.31715H4.63797C4.59189 1.30755 4.54198 1.30371 4.48822 1.30371C4.0735 1.30371 3.79126 1.56867 3.79126 2.01411V3.30435H3.40342V0.981148H3.40149Z" fill="var(--fill-0, black)"/>
<path id="Vector_3" d="M4.96875 2.14275C4.96875 1.39971 5.39691 0.912024 6.09771 0.912024C6.66795 0.912024 7.02315 1.21347 7.10379 1.75107H6.72555C6.66219 1.43235 6.43371 1.23075 6.09771 1.23075C5.61387 1.23075 5.36427 1.61859 5.36427 2.14275C5.36427 2.66691 5.61579 3.05475 6.09771 3.05475C6.45675 3.05475 6.69483 2.84931 6.73131 2.50371H7.10955C7.05003 3.04131 6.66219 3.37347 6.09771 3.37347C5.39691 3.37347 4.96875 2.88579 4.96875 2.14275Z" fill="var(--fill-0, black)"/>
<path id="Vector_4" d="M7.78623 0.00192188H8.17407V1.2768H8.18367C8.34303 1.06176 8.59839 0.912 8.95359 0.912C9.45855 0.912 9.74079 1.1712 9.74079 1.7952V3.3024H9.35295V1.84512C9.35295 1.41312 9.20703 1.23072 8.85183 1.23072C8.43711 1.23072 8.17215 1.47264 8.17215 1.8816V3.3024H7.78431V0L7.78623 0.00192188Z" fill="var(--fill-0, black)"/>
<path id="Vector_5" d="M10.5143 0.0682745H10.9021V0.486833H10.5143V0.0682745ZM10.5143 0.980274H10.9021V3.30348H10.5143V0.980274Z" fill="var(--fill-0, black)"/>
<path id="Vector_6" d="M11.7749 2.8168V1.3H11.3794V0.981278H11.5253C11.7346 0.981278 11.7941 0.912158 11.7941 0.639518V0.334239H12.1628V0.981278H12.6812V1.3H12.1628V2.80336C12.1628 2.96272 12.2261 3.0184 12.4181 3.0184C12.4873 3.0184 12.5679 3.01456 12.6639 3.00112H12.6735V3.32944C12.5602 3.35248 12.445 3.36208 12.3356 3.36208C11.9612 3.36208 11.7749 3.22576 11.7749 2.82064V2.8168Z" fill="var(--fill-0, black)"/>
<path id="Vector_7" d="M13.0901 2.14275C13.0901 1.39971 13.5183 0.912024 14.2191 0.912024C14.9199 0.912024 15.277 1.40931 15.277 2.20995H13.4856C13.5087 2.70723 13.7583 3.06243 14.2229 3.06243C14.5378 3.06243 14.7701 2.88003 14.8508 2.56131H15.2424C15.11 3.08547 14.7413 3.37155 14.221 3.37155C13.5144 3.37155 13.0863 2.88387 13.0863 2.14083L13.0901 2.14275ZM14.8642 1.90659C14.8277 1.45539 14.605 1.22307 14.221 1.22307C13.7832 1.22307 13.5605 1.50147 13.501 1.90659H14.8642Z" fill="var(--fill-0, black)"/>
<path id="Vector_8" d="M15.8519 2.14275C15.8519 1.39971 16.2801 0.912024 16.9809 0.912024C17.5511 0.912024 17.9063 1.21347 17.9869 1.75107H17.6087C17.5453 1.43235 17.3169 1.23075 16.9809 1.23075C16.497 1.23075 16.2474 1.61859 16.2474 2.14275C16.2474 2.66691 16.4989 3.05475 16.9809 3.05475C17.3399 3.05475 17.578 2.84931 17.6145 2.50371H17.9927C17.9332 3.04131 17.5453 3.37347 16.9809 3.37347C16.2801 3.37347 15.8519 2.88579 15.8519 2.14275Z" fill="var(--fill-0, black)"/>
<path id="Vector_9" d="M18.7817 2.8168V1.3H18.3862V0.981278H18.5321C18.7414 0.981278 18.8009 0.912158 18.8009 0.639518V0.334239H19.1696V0.981278H19.688V1.3H19.1696V2.80336C19.1696 2.96272 19.2329 3.0184 19.4249 3.0184C19.494 3.0184 19.5747 3.01456 19.6707 3.00112H19.6803V3.32944C19.567 3.35248 19.4518 3.36208 19.3424 3.36208C18.968 3.36208 18.7817 3.22576 18.7817 2.82064V2.8168Z" fill="var(--fill-0, black)"/>
<path id="Vector_10" d="M20.3254 2.48852V0.981318H20.7132V2.43476C20.7132 2.87636 20.8592 3.05492 21.1971 3.05492C21.6022 3.05492 21.8576 2.80532 21.8576 2.381V0.98324H22.2454V3.30643H21.8576V3.005H21.848C21.6886 3.22004 21.4563 3.37364 21.0972 3.37364C20.6192 3.37364 20.3273 3.11443 20.3273 2.49044L20.3254 2.48852Z" fill="var(--fill-0, black)"/>
<path id="Vector_11" d="M23.0177 0.981148H23.4055V1.36323H23.4151C23.5572 1.13091 23.7895 0.912024 24.0948 0.912024C24.1581 0.912024 24.2177 0.921629 24.2676 0.935069V1.31715H24.2541C24.2081 1.30755 24.1581 1.30371 24.1044 1.30371C23.6897 1.30371 23.4074 1.56867 23.4074 2.01411V3.30435H23.0196V0.981148H23.0177Z" fill="var(--fill-0, black)"/>
<path id="Vector_12" d="M24.5564 2.69378C24.5564 2.2829 24.7618 2.0141 25.5413 1.9565L26.0885 1.91619V1.75683C26.0885 1.42467 25.91 1.22307 25.5644 1.22307C25.3052 1.22307 25.046 1.33635 25.0268 1.62819H24.662C24.6754 1.20387 24.9999 0.912024 25.5913 0.912024C26.1826 0.912024 26.4745 1.21731 26.4745 1.85091V2.88002C26.4745 2.98562 26.5109 3.02978 26.5935 3.02978C26.6338 3.02978 26.6703 3.02595 26.703 3.02019H26.7125V3.32931C26.6396 3.34851 26.5666 3.35619 26.4975 3.35619C26.3113 3.35619 26.1289 3.26979 26.1193 2.98755V2.97411H26.1097C25.9503 3.22563 25.6815 3.36963 25.3359 3.36963C24.9116 3.36963 24.5564 3.14691 24.5564 2.68995V2.69378ZM26.0924 2.36547V2.20226L25.5222 2.24835C25.0441 2.28483 24.9442 2.44035 24.9442 2.68611C24.9442 2.91459 25.1132 3.06435 25.3993 3.06435C25.814 3.06435 26.0924 2.78211 26.0924 2.36739V2.36547Z" fill="var(--fill-0, black)"/>
<path id="Vector_13" d="M27.3047 0.00101902H27.6925V3.30342H27.3047V0.00101902Z" fill="var(--fill-0, black)"/>
<path id="Vector_14" d="M29.5486 0.00101902H30.6564C31.626 0.00101902 32.2289 0.615418 32.2289 1.6503C32.2289 2.68518 31.6279 3.30342 30.6564 3.30342H29.5486V0.00101902ZM31.8084 1.6503C31.8084 0.807418 31.3899 0.35622 30.643 0.35622H29.9595V2.94822H30.643C31.3899 2.94822 31.8084 2.49318 31.8084 1.6503Z" fill="var(--fill-0, black)"/>
<path id="Vector_15" d="M32.7919 2.14275C32.7919 1.39971 33.22 0.912024 33.9208 0.912024C34.6216 0.912024 34.9788 1.40931 34.9788 2.20995H33.1874C33.2104 2.70723 33.46 3.06243 33.9247 3.06243C34.2396 3.06243 34.4719 2.88003 34.5525 2.56131H34.9442C34.8117 3.08547 34.4431 3.37155 33.9228 3.37155C33.2162 3.37155 32.788 2.88387 32.788 2.14083L32.7919 2.14275ZM34.564 1.90659C34.5276 1.45539 34.3048 1.22307 33.9208 1.22307C33.4831 1.22307 33.2604 1.50147 33.2008 1.90659H34.5621H34.564Z" fill="var(--fill-0, black)"/>
<path id="Vector_16" d="M35.516 2.56707H35.8942C35.9268 2.89923 36.1169 3.05859 36.5048 3.05859C36.8561 3.05859 37.0558 2.92227 37.0558 2.67075C37.0558 2.46147 36.9233 2.33283 36.6411 2.29635L36.186 2.23683C35.7848 2.18691 35.5582 1.95843 35.5582 1.59939C35.5582 1.19427 35.923 0.912024 36.4472 0.912024C37.0385 0.912024 37.3534 1.20387 37.3668 1.62819H36.9886C36.9694 1.33251 36.7371 1.22307 36.4472 1.22307C36.0958 1.22307 35.9364 1.36514 35.9364 1.57826C35.9364 1.75106 36.0267 1.88355 36.355 1.92963L36.81 1.99299C37.2209 2.05251 37.4436 2.28867 37.4436 2.65347C37.4436 3.09507 37.0788 3.37347 36.5048 3.37347C35.8904 3.37347 35.5486 3.09123 35.516 2.56707Z" fill="var(--fill-0, black)"/>
<path id="Vector_17" d="M38.1175 0.0682745H38.5054V0.486833H38.1175V0.0682745ZM38.1175 0.980274H38.5054V3.30348H38.1175V0.980274Z" fill="var(--fill-0, black)"/>
<path id="Vector_18" d="M39.2301 3.48291H39.6218C39.6679 3.71907 39.858 3.87843 40.2592 3.87843C40.6912 3.87843 40.9389 3.64227 40.9389 3.15843V2.84355H40.9293C40.7661 3.10851 40.5012 3.23139 40.1863 3.23139C39.5623 3.23139 39.161 2.7533 39.161 2.06978C39.161 1.38626 39.5488 0.912024 40.2093 0.912024C40.5108 0.912024 40.7642 1.03875 40.9293 1.26723H40.9389V0.981148H41.3268V3.13155C41.3268 3.80163 40.9216 4.19715 40.2612 4.19715C39.6007 4.19715 39.2954 3.91491 39.232 3.48099L39.2301 3.48291ZM40.96 2.06978C40.96 1.5917 40.7047 1.22307 40.2362 1.22307C39.7677 1.22307 39.5565 1.56482 39.5565 2.06978C39.5565 2.57474 39.8253 2.92226 40.24 2.92226C40.7143 2.92226 40.96 2.54786 40.96 2.06978Z" fill="var(--fill-0, black)"/>
<path id="Vector_19" d="M42.0977 0.981148H42.4855V1.27683H42.4952C42.6545 1.06179 42.9099 0.912024 43.2651 0.912024C43.77 0.912024 44.0523 1.17123 44.0523 1.79523V3.30243H43.6644V1.84515C43.6644 1.41315 43.5185 1.23075 43.1633 1.23075C42.7486 1.23075 42.4836 1.47267 42.4836 1.88163V3.30243H42.0958V0.979226L42.0977 0.981148Z" fill="var(--fill-0, black)"/>
<path id="Vector_20" d="M44.7256 2.14275C44.7256 1.39971 45.1538 0.912024 45.8546 0.912024C46.5554 0.912024 46.9125 1.40931 46.9125 2.20995H45.1212C45.1442 2.70723 45.3938 3.06243 45.8584 3.06243C46.1733 3.06243 46.4056 2.88003 46.4863 2.56131H46.878C46.7455 3.08547 46.3768 3.37155 45.8565 3.37155C45.15 3.37155 44.7218 2.88387 44.7218 2.14083L44.7256 2.14275ZM46.4978 1.90659C46.4613 1.45539 46.2386 1.22307 45.8546 1.22307C45.4168 1.22307 45.1941 1.50147 45.1346 1.90659H46.4959H46.4978Z" fill="var(--fill-0, black)"/>
<path id="Vector_21" d="M47.5873 0.981148H47.9751V1.36323H47.9847C48.1268 1.13091 48.3591 0.912024 48.6644 0.912024C48.7278 0.912024 48.7873 0.921629 48.8372 0.935069V1.31715H48.8238C48.7777 1.30755 48.7278 1.30371 48.674 1.30371C48.2593 1.30371 47.9771 1.56867 47.9771 2.01411V3.30435H47.5892V0.981148H47.5873Z" fill="var(--fill-0, black)"/>
</g>
</svg>
