<svg preserveAspectRatio="none" width="100%" height="100%" overflow="visible" style="display: block;" viewBox="0 0 24 24" fill="none" xmlns="http://www.w3.org/2000/svg">
<g id="WhatsApp">
<path id="Oval" d="M12 24C18.6274 24 24 18.6274 24 12C24 5.37258 18.6274 0 12 0C5.37258 0 0 5.37258 0 12C0 18.6274 5.37258 24 12 24Z" fill="var(--fill-0, #25D366)"/>
<path id="Page-1" d="M12.3953 4.4C14.3042 4.40082 16.096 5.144 17.4432 6.49277C18.7903 7.84144 19.5318 9.63412 19.5311 11.5406C19.5295 15.474 16.3295 18.6748 12.3953 18.6764H12.3924C11.1982 18.6759 10.0244 18.3767 8.98223 17.8082L5.2 18.8004L6.2127 15.1021C5.58827 14.02 5.25903 12.7924 5.25957 11.5348C5.26133 7.60071 8.46244 4.40008 12.3953 4.4ZM12.3982 5.60508C9.12683 5.60508 6.46595 8.26576 6.46465 11.5357C6.46423 12.6563 6.77729 13.7478 7.3709 14.692L7.5125 14.9166L6.91289 17.1051L9.15801 16.5162L9.3748 16.6441C10.2854 17.1845 11.3292 17.4709 12.3934 17.4713H12.3953C15.6641 17.4713 18.3245 14.8107 18.326 11.5406C18.3266 9.95589 17.7104 8.46538 16.5906 7.34434C15.471 6.22349 13.9821 5.60572 12.3982 5.60508ZM10.2107 8.24668C10.3202 8.25217 10.4674 8.20468 10.6121 8.55234C10.7607 8.9094 11.1173 9.78732 11.1619 9.87656C11.2063 9.96565 11.2357 10.0693 11.1766 10.1881C11.1172 10.3069 11.0878 10.382 10.9988 10.4859C10.9097 10.59 10.8115 10.7185 10.7312 10.7984C10.642 10.8873 10.5493 10.9833 10.6531 11.1617C10.7571 11.3402 11.1144 11.9243 11.6443 12.3971C12.3254 13.0045 12.9006 13.1926 13.0789 13.2818C13.2569 13.3709 13.3607 13.3566 13.4646 13.2379C13.5686 13.1189 13.9101 12.7172 14.0291 12.5387C14.1479 12.3603 14.2671 12.3894 14.4305 12.4488C14.5938 12.5083 15.4688 12.9391 15.6482 13.0289C15.8265 13.1182 15.9455 13.1635 15.99 13.2379C16.0345 13.3124 16.035 13.6692 15.8865 14.0855C15.7379 14.5018 15.0261 14.8818 14.6834 14.9332C14.3763 14.9791 13.9873 14.9985 13.5604 14.8629C13.3014 14.7807 12.9691 14.6706 12.5437 14.4869C10.7552 13.7146 9.58699 11.9136 9.49785 11.7945C9.40838 11.6751 8.76953 10.828 8.76934 9.95078C8.76934 9.07401 9.22956 8.64226 9.39336 8.46348C9.55666 8.28511 9.75007 8.23991 9.86895 8.23984C9.98773 8.23984 10.1069 8.24147 10.2107 8.24668Z" fill="var(--fill-0, white)"/>
</g>
</svg>
